<svg width="91" height="37" viewBox="0 0 91 37" fill="none" xmlns="http://www.w3.org/2000/svg">
<path d="M0.910072 35.6113V2.12915H23.0789V7.96564H7.98907V15.9438H21.6076V21.7803H7.98907V35.6113H0.910072ZM27.7097 35.6113V10.4997H34.6743V35.6113H27.7097ZM31.2083 7.26265C30.1729 7.26265 29.2846 6.91932 28.5435 6.23268C27.8133 5.53513 27.4481 4.70135 27.4481 3.73132C27.4481 2.7722 27.8133 1.94931 28.5435 1.26267C29.2846 0.565122 30.1729 0.216348 31.2083 0.216348C32.2438 0.216348 33.1266 0.565122 33.8568 1.26267C34.598 1.94931 34.9685 2.7722 34.9685 3.73132C34.9685 4.70135 34.598 5.53513 33.8568 6.23268C33.1266 6.91932 32.2438 7.26265 31.2083 7.26265ZM47.2178 21.0937V35.6113H40.2533V10.4997H46.8908V14.9302H47.1851C47.741 13.4697 48.6729 12.3144 49.9808 11.4643C51.2887 10.6032 52.8745 10.1727 54.7382 10.1727C56.4821 10.1727 58.0025 10.5542 59.2995 11.3171C60.5965 12.0801 61.6047 13.17 62.324 14.5869C63.0434 15.9929 63.4031 17.6713 63.4031 19.6223V35.6113H56.4385V20.8648C56.4494 19.328 56.057 18.1291 55.2614 17.2681C54.4658 16.3961 53.3704 15.9602 51.9753 15.9602C51.038 15.9602 50.2096 16.1618 49.4903 16.5651C48.7818 16.9683 48.226 17.5569 47.8227 18.3307C47.4304 19.0937 47.2287 20.0146 47.2178 21.0937ZM89.7858 17.6604L83.4098 18.0528C83.3008 17.5078 83.0665 17.0174 82.7068 16.5814C82.3471 16.1346 81.873 15.7803 81.2845 15.5188C80.7068 15.2463 80.0147 15.11 79.2082 15.11C78.1292 15.11 77.2191 15.3389 76.4779 15.7967C75.7368 16.2435 75.3662 16.843 75.3662 17.595C75.3662 18.1945 75.606 18.7013 76.0856 19.1155C76.5651 19.5296 77.388 19.8621 78.5542 20.1127L83.0992 21.0283C85.5406 21.5296 87.3607 22.3362 88.5596 23.4479C89.7586 24.5596 90.358 26.0201 90.358 27.8293C90.358 29.4751 89.873 30.9192 88.903 32.1617C87.9438 33.4043 86.625 34.3743 84.9466 35.0718C83.279 35.7585 81.3553 36.1018 79.1755 36.1018C75.8512 36.1018 73.2027 35.4097 71.23 34.0255C69.2682 32.6304 68.1183 30.734 67.7804 28.3361L74.6305 27.9765C74.8376 28.9901 75.339 29.7639 76.1346 30.298C76.9303 30.8212 77.9493 31.0827 79.1918 31.0827C80.4125 31.0827 81.3935 30.8484 82.1346 30.3797C82.8866 29.9002 83.2681 29.2844 83.279 28.5323C83.2681 27.9002 83.0011 27.3825 82.4779 26.9792C81.9548 26.565 81.1482 26.249 80.0583 26.031L75.7096 25.1645C73.2572 24.674 71.4316 23.8239 70.2327 22.6141C69.0447 21.4043 68.4507 19.8621 68.4507 17.9874C68.4507 16.3743 68.8867 14.9847 69.7586 13.8185C70.6414 12.6523 71.8785 11.7531 73.4698 11.1209C75.072 10.4888 76.9466 10.1727 79.0937 10.1727C82.2654 10.1727 84.7613 10.843 86.5815 12.1836C88.4125 13.5242 89.4806 15.3498 89.7858 17.6604Z" fill="#1877F2"/>
</svg>
